# xmcd
#
# Track frame offsets: 
#        150
#        20327
#        39077
#        56107
#        79695
#        102821
#        120539
#        131574
#        150824
#        166691
#        193354
#        214431
#        241052
#        252819
#        276712
#        296640
#        316327
#        344762
#
# Disc length: 4759 seconds
#
# Revision: 0
# Processed by: cddbd v1.5.2PL0 Copyright (c) Steve Scherf et al.
# Submitted via: ExactAudioCopy v1.3
#
DISCID=01129512
DTITLE=Various Artist - Akella Presents - vol. 199 - Various Blues-Re
DTITLE=lax  CD1
DYEAR=2019
DGENRE=Blues
TTITLE0=Johnny Rodgers - I'll Play the Blues for You
TTITLE1=Blue Attitude - Chain And Ball
TTITLE2=30 Music Street - Drifter On The Road
TTITLE3=The Fleurieu Bluesbreakers - Tomorrow
TTITLE4=Joe Barksdale - Danielle
TTITLE5=Anders Osborne - Fields of Honey
TTITLE6=Shola Kaye - He's My Man
TTITLE7=Dana Gillespie - Mighty Tight Woman
TTITLE8=Billy Hector Band - Traveler
TTITLE9=Guy Davis - Wish I Hadn't Stayed Away So Long
TTITLE10=The Endangered Species - Faded
TTITLE11=Christone Kingfish Ingram - Been Here Before
TTITLE12=Tom Euler - Thoughts Of You
TTITLE13=General Blues Band - Diamonds At Your Feet
TTITLE14=Ryan Foret - Out of Reach of My Two Empty Arms
TTITLE15=Uni Debess - As the Years Go Passing By
TTITLE16=Baba Blues - Heavy Stone
TTITLE17=Pristine - Ocean
EXTD=
EXTT0=
EXTT1=
EXTT2=
EXTT3=
EXTT4=
EXTT5=
EXTT6=
EXTT7=
EXTT8=
EXTT9=
EXTT10=
EXTT11=
EXTT12=
EXTT13=
EXTT14=
EXTT15=
EXTT16=
EXTT17=
PLAYORDER=
